<?xml version="1.0" standalone="no"?><!DOCTYPE svg PUBLIC "-//W3C//DTD SVG 1.1//EN" "http://www.w3.org/Graphics/SVG/1.1/DTD/svg11.dtd"><svg t="1618671922329" class="icon" viewBox="0 0 1237 1024" version="1.1" xmlns="http://www.w3.org/2000/svg" p-id="3273" data-darkreader-inline-fill="" xmlns:xlink="http://www.w3.org/1999/xlink" width="241.6015625" height="200"><defs><style type="text/css"></style></defs><path d="M1116 511l121-47-85-127 76 13 7-12-143-97L666 83 162 250 0 365l8 13 88-37-64 90 128 72v286l407 226 548-226z m81-182l-56-9-35-51zM673 102l398 148-398 149V102z m410 158l132 197-549 213-91-219zM58 342l78-55-24 32z m-5 85l114-159 389 183-69 219z m121 353V511l322 180 62-199 2 503z m8-521l477-158v303l-94 35z m920 520L574 996l-1-513 85 206 444-172v262z" p-id="3274"></path></svg>